HIERARCHY
ROOT Hips
{
    OFFSET   0.000000   0.000000   0.000000
    CHANNELS 6 Xposition Yposition Zposition Zrotation Xrotation Yrotation
    JOINT Chest
    {
        OFFSET   0.000000   8.007230   0.000000
        CHANNELS 3 Zrotation Xrotation Yrotation
        JOINT Chest2
        {
            OFFSET   0.000000  22.077100   0.000000
            CHANNELS 3 Zrotation Xrotation Yrotation
            JOINT Neck
            {
                OFFSET   0.000000  23.254800  -0.000021
                CHANNELS 3 Zrotation Xrotation Yrotation
                JOINT Head
                {
                    OFFSET   0.000000  14.370000   1.956610
                    CHANNELS 3 Zrotation Xrotation Yrotation
                    End Site
                    {
                        OFFSET   0.000000  19.566000   0.000000
                    }
                }
            }
            JOINT LeftCollar
            {
                OFFSET   3.911900  19.017000  -0.467063
                CHANNELS 3 Zrotation Xrotation Yrotation
                JOINT LeftShoulder
                {
                    OFFSET  10.383700   0.000000   0.000000
                    CHANNELS 3 Zrotation Xrotation Yrotation
                    JOINT LeftElbow
                    {
                        OFFSET  26.662100   0.001529   0.000325
                        CHANNELS 3 Zrotation Xrotation Yrotation
                        JOINT LeftWrist
                        {
                            OFFSET  28.869000  -0.000011  -0.000096
                            CHANNELS 3 Zrotation Xrotation Yrotation
                            JOINT LeftFinger0
                            {
                                OFFSET   2.044650  -2.323460   3.252850
                                CHANNELS 3 Zrotation Xrotation Yrotation
                                JOINT LeftFinger01
                                {
                                    OFFSET   3.088130   0.000000   0.000000
                                    CHANNELS 3 Zrotation Xrotation Yrotation
                                    JOINT LeftFinger02
                                    {
                                        OFFSET   2.639460   0.000000   0.000000
                                        CHANNELS 3 Zrotation Xrotation Yrotation
                                        End Site
                                        {
                                            OFFSET   2.582190   0.000000   0.000000
                                        }
                                    }
                                }
                            }
                            JOINT LeftFinger1
                            {
                                OFFSET   8.364480   0.000000   3.252850
                                CHANNELS 3 Zrotation Xrotation Yrotation
                                JOINT LeftFinger11
                                {
                                    OFFSET   4.646930   0.000000   0.000000
                                    CHANNELS 3 Zrotation Xrotation Yrotation
                                    JOINT LeftFinger12
                                    {
                                        OFFSET   2.323460   0.000000   0.000000
                                        CHANNELS 3 Zrotation Xrotation Yrotation
                                        End Site
                                        {
                                            OFFSET   2.273050   0.000000   0.000000
                                        }
                                    }
                                }
                            }
                            JOINT LeftFinger2
                            {
                                OFFSET   8.364480   0.000016   1.078090
                                CHANNELS 3 Zrotation Xrotation Yrotation
                                JOINT LeftFinger21
                                {
                                    OFFSET   5.111620   0.000000   0.000000
                                    CHANNELS 3 Zrotation Xrotation Yrotation
                                    JOINT LeftFinger22
                                    {
                                        OFFSET   2.788160   0.000017   0.000000
                                        CHANNELS 3 Zrotation Xrotation Yrotation
                                        End Site
                                        {
                                            OFFSET   2.727660   0.000000   0.000000
                                        }
                                    }
                                }
                            }
                            JOINT LeftFinger3
                            {
                                OFFSET   7.899780   0.000015  -1.078090
                                CHANNELS 3 Zrotation Xrotation Yrotation
                                JOINT LeftFinger31
                                {
                                    OFFSET   4.646920   0.000000   0.000000
                                    CHANNELS 3 Zrotation Xrotation Yrotation
                                    JOINT LeftFinger32
                                    {
                                        OFFSET   2.323470   0.000000   0.000000
                                        CHANNELS 3 Zrotation Xrotation Yrotation
                                        End Site
                                        {
                                            OFFSET   2.273050   0.000000   0.000000
                                        }
                                    }
                                }
                            }
                            JOINT LeftFinger4
                            {
                                OFFSET   7.435090   0.000000  -3.252850
                                CHANNELS 3 Zrotation Xrotation Yrotation
                                JOINT LeftFinger41
                                {
                                    OFFSET   3.717550   0.000000   0.000000
                                    CHANNELS 3 Zrotation Xrotation Yrotation
                                    JOINT LeftFinger42
                                    {
                                        OFFSET   1.858760   0.000000   0.000000
                                        CHANNELS 3 Zrotation Xrotation Yrotation
                                        End Site
                                        {
                                            OFFSET   1.818440   0.000000   0.000000
                                        }
                                    }
                                }
                            }
                        }
                    }
                }
            }
            JOINT RightCollar
            {
                OFFSET  -3.911900  19.017000  -0.467062
                CHANNELS 3 Zrotation Xrotation Yrotation
                JOINT RightShoulder
                {
                    OFFSET -10.383700   0.000015   0.000000
                    CHANNELS 3 Zrotation Xrotation Yrotation
                    JOINT RightElbow
                    {
                        OFFSET -26.662100   0.001341   0.000385
                        CHANNELS 3 Zrotation Xrotation Yrotation
                        JOINT RightWrist
                        {
                            OFFSET -28.869000   0.000025  -0.000080
                            CHANNELS 3 Zrotation Xrotation Yrotation
                            JOINT RightFinger0
                            {
                                OFFSET  -2.044650  -2.323490   3.252850
                                CHANNELS 3 Zrotation Xrotation Yrotation
                                JOINT RightFinger01
                                {
                                    OFFSET  -3.088130   0.000000   0.000000
                                    CHANNELS 3 Zrotation Xrotation Yrotation
                                    JOINT RightFinger02
                                    {
                                        OFFSET  -2.639460   0.000000   0.000000
                                        CHANNELS 3 Zrotation Xrotation Yrotation
                                        End Site
                                        {
                                            OFFSET  -2.582190   0.000000   0.000000
                                        }
                                    }
                                }
                            }
                            JOINT RightFinger1
                            {
                                OFFSET  -8.364480   0.000000   3.252850
                                CHANNELS 3 Zrotation Xrotation Yrotation
                                JOINT RightFinger11
                                {
                                    OFFSET  -4.646930   0.000000   0.000000
                                    CHANNELS 3 Zrotation Xrotation Yrotation
                                    JOINT RightFinger12
                                    {
                                        OFFSET  -2.323470   0.000000   0.000000
                                        CHANNELS 3 Zrotation Xrotation Yrotation
                                        End Site
                                        {
                                            OFFSET  -2.273050   0.000000   0.000000
                                        }
                                    }
                                }
                            }
                            JOINT RightFinger2
                            {
                                OFFSET  -8.364480   0.000000   1.078090
                                CHANNELS 3 Zrotation Xrotation Yrotation
                                JOINT RightFinger21
                                {
                                    OFFSET  -5.111610   0.000000   0.000000
                                    CHANNELS 3 Zrotation Xrotation Yrotation
                                    JOINT RightFinger22
                                    {
                                        OFFSET  -2.788160   0.000000   0.000000
                                        CHANNELS 3 Zrotation Xrotation Yrotation
                                        End Site
                                        {
                                            OFFSET  -2.727660   0.000000   0.000000
                                        }
                                    }
                                }
                            }
                            JOINT RightFinger3
                            {
                                OFFSET  -7.899780   0.000000  -1.078090
                                CHANNELS 3 Zrotation Xrotation Yrotation
                                JOINT RightFinger31
                                {
                                    OFFSET  -4.646920   0.000000   0.000000
                                    CHANNELS 3 Zrotation Xrotation Yrotation
                                    JOINT RightFinger32
                                    {
                                        OFFSET  -2.323470   0.000000   0.000000
                                        CHANNELS 3 Zrotation Xrotation Yrotation
                                        End Site
                                        {
                                            OFFSET  -2.273050   0.000000   0.000000
                                        }
                                    }
                                }
                            }
                            JOINT RightFinger4
                            {
                                OFFSET  -7.435090   0.000000  -3.252850
                                CHANNELS 3 Zrotation Xrotation Yrotation
                                JOINT RightFinger41
                                {
                                    OFFSET  -3.717550   0.000000   0.000000
                                    CHANNELS 3 Zrotation Xrotation Yrotation
                                    JOINT RightFinger42
                                    {
                                        OFFSET  -1.858770   0.000000   0.000000
                                        CHANNELS 3 Zrotation Xrotation Yrotation
                                        End Site
                                        {
                                            OFFSET  -1.818440   0.000000   0.000000
                                        }
                                    }
                                }
                            }
                        }
                    }
                }
            }
        }
    }
    JOINT LeftHip
    {
        OFFSET   9.783010   0.000000   0.000000
        CHANNELS 3 Zrotation Xrotation Yrotation
        JOINT LeftKnee
        {
            OFFSET   0.000070 -41.789100   0.000028
            CHANNELS 3 Zrotation Xrotation Yrotation
            JOINT LeftAnkle
            {
                OFFSET   0.000087 -41.133200  -0.000100
                CHANNELS 3 Zrotation Xrotation Yrotation
                JOINT LeftToe
                {
                    OFFSET   0.000000  -6.358960  14.674500
                    CHANNELS 3 Zrotation Xrotation Yrotation
                    End Site
                    {
                        OFFSET   0.000000   0.000000   3.913200
                    }
                }
            }
        }
    }
    JOINT RightHip
    {
        OFFSET  -9.783020   0.000000   0.000000
        CHANNELS 3 Zrotation Xrotation Yrotation
        JOINT RightKnee
        {
            OFFSET   0.000044 -41.789100  -0.000870
            CHANNELS 3 Zrotation Xrotation Yrotation
            JOINT RightAnkle
            {
                OFFSET  -0.000090 -41.133200  -0.000245
                CHANNELS 3 Zrotation Xrotation Yrotation
                JOINT RightToe
                {
                    OFFSET   0.000000  -6.358960  14.674500
                    CHANNELS 3 Zrotation Xrotation Yrotation
                    End Site
                    {
                        OFFSET   0.000000   0.000000   3.913200
                    }
                }
            }
        }
    }
}
MOTION
Frames: 5
Frame Time:   0.016667
  0.770691  89.554400  -0.786574  -1.234950  -2.171580   2.587710   1.080970   1.569400  -1.391160   2.200960   3.111790  -2.813250  -1.565290   2.230320   0.071044  -2.582040   4.513150   7.212330  -4.365270   3.123040   8.676300 -79.706600   5.975370   1.298780   0.075121  -0.672678 -12.901100  10.286000  -7.092870  -1.983550  40.468400  35.736800 -46.043800 -33.247300   0.001129   0.000801 -11.623600   0.000000  -0.000000 -35.458000  -1.218110   1.709670 -29.025900   0.003081   0.002700 -20.318100   0.007903  -0.001353 -31.771700  -3.701200   5.954560 -47.946200   0.009632   0.006915 -31.932200   0.007141   0.009679 -28.610600  -4.897430   8.905010 -43.486200   0.010574   0.009159 -28.961800   0.006762  -0.008310 -37.563200  -7.895900  10.127400 -57.396000   0.012717   0.000822 -38.225700   0.004174   0.006339   6.732500   4.675120   5.421210  71.146700  -5.963390  -1.076300   2.915720  -4.082270  13.401700 -20.134700   3.000960   3.749110 -38.771600  33.824900  66.414400  32.083000   0.005127  -0.003121  11.041500   0.002771   0.002220  30.857100   0.248894   0.416556  25.247500   0.001395   0.002716  17.685900   0.000410   0.004126  28.362500  -0.390497  -0.723489  34.737600   0.003322  -0.000266  23.135200   0.000207  -0.000285  28.583600  -2.077590  -3.808130  38.057000  -0.006633  -0.004363  25.346000  -0.000724   0.000494  36.376200  -2.575570  -3.490940  54.682100   0.004956  -0.010130  36.418300   0.001945  -0.000762   3.219950   2.106270  -4.919560   0.439973   1.366840   9.201350  -2.661100  -2.211660  -1.727600  -0.000000   0.000000   0.000000  -0.032325   0.398322  -3.149490  -1.112580   5.799860 -11.808500   0.748144  -3.959920  -3.644640  -0.000000   0.000000   0.000000
  0.770445  89.554400  -0.800439  -1.233590  -2.192920   2.604280   1.084540   1.587870  -1.392810   2.208650   3.148610  -2.817050  -1.584880   2.234080   0.070981  -2.614340   4.520410   7.254070  -4.386460   3.115920   8.668380 -79.705600   6.035410   1.275930   0.077127  -0.709375 -12.922300  10.261000  -7.130660  -1.997010  40.387900  35.597000 -46.005000 -33.258600   0.001100   0.000781 -11.629200  -0.000023   0.000000 -35.519000  -1.209780   1.694410 -29.075700   0.003129   0.002701 -20.352900   0.007909  -0.001356 -31.789900  -3.701310   5.949540 -47.973400   0.009696   0.006927 -31.950300   0.007151   0.009694 -28.633700  -4.897200   8.905000 -43.520900   0.010652   0.009181 -28.985000   0.006812  -0.008294 -37.600300  -7.892900  10.108500 -57.450700   0.012798   0.000867 -38.262200   0.004174   0.006379   6.746660   4.656940   5.437930  71.146100  -5.945710  -1.070230   2.899740  -4.166440  13.427200 -20.120200   2.962190   3.769170 -38.805500  33.854900  66.456400  32.057400   0.005130  -0.003123  11.028700   0.002717   0.002206  30.868100   0.259751   0.434461  25.256500   0.001389   0.002716  17.685900   0.000388   0.004125  28.362900  -0.383699  -0.710858  34.768700   0.003305  -0.000253  23.155900   0.000198  -0.000271  28.585000  -2.065490  -3.785540  38.098500  -0.006625  -0.004350  25.373600  -0.000725   0.000502  36.402000  -2.561840  -3.469220  54.719200   0.004951  -0.010126  36.443000   0.001935  -0.000744   3.214020   2.109900  -4.919980   0.444758   1.378900   9.199640  -2.661290  -2.207430  -1.736680  -0.000000   0.000000   0.000000  -0.023728   0.407225  -3.145400  -1.123850   5.811770 -11.803200   0.745703  -3.971150  -3.669410   0.000000   0.000000   0.000000
  0.770198  89.554400  -0.823723  -1.231090  -2.232000   2.629150   1.091330   1.620200  -1.396180   2.223170   3.213030  -2.824670  -1.621000   2.246400   0.070879  -2.674020   4.544710   7.341850  -4.424820   3.100150   8.660390 -79.703600   6.139300   1.235320   0.065694  -0.802270 -12.977100  10.216700  -7.190370  -2.016560  40.242600  35.344900 -45.932000 -33.279900   0.001031   0.000736 -11.639900  -0.000077   0.000000 -35.580500  -1.191920   1.665640 -29.125500   0.003236   0.002702 -20.387800   0.007925  -0.001365 -31.808200  -3.701470   5.944480 -48.000700   0.009830   0.006955 -31.968400   0.007176   0.009731 -28.656800  -4.896870   8.905000 -43.555700   0.010817   0.009235 -29.008100   0.006917  -0.008257 -37.641100  -7.878600  10.078000 -57.505400   0.012968   0.000968 -38.298600   0.004174   0.006465   6.768090   4.626600   5.470340  71.144200  -5.913640  -1.060080   2.865230  -4.281720  13.498700 -20.079300   2.903820   3.803520 -38.839500  33.884800  66.498500  32.018000   0.005143  -0.003128  11.009000   0.002607   0.002178  30.879000   0.282515   0.472341  25.265500   0.001374   0.002716  17.685900   0.000335   0.004124  28.363500  -0.368795  -0.683134  34.799800   0.003265  -0.000222  23.176600   0.000176  -0.000240  28.588000  -2.041170  -3.740230  38.165700  -0.006608  -0.004315  25.418300  -0.000725   0.000524  36.439300  -2.533450  -3.426250  54.772400   0.004939  -0.010115  36.478500   0.001910  -0.000702   3.204990   2.121370  -4.922890   0.451607   1.397290   9.195750  -2.661380  -2.200000  -1.745760  -0.000000   0.000000  -0.000000  -0.012442   0.423681  -3.138190  -1.140890   5.834060 -11.792800   0.741618  -3.990580  -3.709530   0.000000   0.000000  -0.000000
  0.771448  89.554400  -0.842491  -1.228680  -2.270920   2.643300   1.098870   1.648940  -1.400450   2.239110   3.270210  -2.834040  -1.658410   2.267530   0.070781  -2.736290   4.586870   7.437150  -4.461670   3.077670   8.666810 -79.707000   6.235360   1.197400   0.021729  -0.927458 -13.044500  10.176600  -7.233550  -2.027380  40.151500  35.154700 -45.919400 -33.295300   0.000922   0.000670 -11.647700  -0.000158   0.000059 -35.535200  -1.162090   1.626900 -29.087800   0.003385   0.002703 -20.361400   0.007951  -0.001379 -31.808200  -3.701590   5.944450 -48.000600   0.010012   0.006994 -31.968400   0.007215   0.009788 -28.600300  -4.896550   8.918050 -43.472700   0.011044   0.009314 -28.952900   0.007059  -0.008204 -37.575200  -7.836350  10.050700 -57.397000   0.013201   0.001109 -38.226400   0.004173   0.006583   6.780840   4.604590   5.508310  71.140500  -5.873790  -1.049780   2.821220  -4.323290  13.591200 -20.031600   2.886480   3.840710 -38.834800  33.874000  66.497800  31.988500   0.005171  -0.003137  10.994300   0.002464   0.002146  30.868700   0.312091   0.522505  25.257400   0.001353   0.002714  17.680200   0.000258   0.004124  28.364000  -0.343168  -0.635398  34.799300   0.003206  -0.000182  23.176300   0.000148  -0.000191  28.592700  -2.004410  -3.671940  38.218900  -0.006586  -0.004259  25.453700  -0.000726   0.000558  36.459800  -2.488500  -3.362950  54.799400   0.004920  -0.010100  36.496500   0.001872  -0.000640   3.199980   2.141960  -4.930650   0.454444   1.410550   9.188710  -2.663730  -2.193870  -1.740730  -0.000000   0.000000   0.000000  -0.008875   0.440663  -3.132190  -1.151240   5.857000 -11.780100   0.736826  -4.008720  -3.739340  -0.000000   0.000000   0.000000
  0.774866  89.554400  -0.861926  -1.225860  -2.313480   2.654100   1.106660   1.680300  -1.404910   2.255640   3.332620  -2.843840  -1.697560   2.298720   0.070725  -2.801420   4.649410   7.580650  -4.503070   3.053800   8.684630 -79.726200   6.326150   1.156680  -0.047680  -1.122040 -13.169600  10.132000  -7.268290  -2.032180  39.949000  34.837800 -45.769000 -33.327500   0.000803   0.000599 -11.663800  -0.000255   0.000159 -35.489300  -1.141810   1.601660 -29.050100   0.003543   0.002703 -20.335100   0.007983  -0.001396 -31.808200  -3.701670   5.944430 -48.000600   0.010194   0.007040 -31.968400   0.007265   0.009858 -28.543800  -4.896330   8.931090 -43.388700   0.011270   0.009410 -28.896900   0.007202  -0.008144 -37.505600  -7.805410  10.035000 -57.288700   0.013433   0.001259 -38.154300   0.004172   0.006700   6.790650   4.577800   5.546740  71.136200  -5.848330  -1.043570   2.766900  -4.331320  13.768900 -19.924000   2.844110   3.863460 -38.802100  33.798100  66.493200  31.972800   0.005201  -0.003153  10.986400   0.002320   0.002111  30.858400   0.344142   0.576362  25.249300   0.001328   0.002712  17.674600   0.000169   0.004123  28.364000  -0.325648  -0.602753  34.796100   0.003138  -0.000131  23.174200   0.000110  -0.000143  28.595800  -1.979860  -3.626380  38.263600  -0.006567  -0.004190  25.483500  -0.000726   0.000598  36.468700  -2.458220  -3.320910  54.810400   0.004897  -0.010081  36.503800   0.001823  -0.000567   3.195240   2.168850  -4.941000   0.456481   1.417480   9.183860  -2.667390  -2.186050  -1.733110  -0.000000   0.000000  -0.000000  -0.007563   0.458752  -3.124530  -1.158790   5.882900 -11.767000   0.731351  -4.025620  -3.767500   0.000000   0.000000   0.000000
